<svg id="Layer_2" viewBox="0 0 149.01 149.23">
    <defs>
        <style>.cls-1{fill:#231f20;}.cls-1,.cls-2{stroke:#937341;stroke-miterlimit:10;stroke-width:10px;}.cls-3,.cls-2{fill:#937341;}</style>
    </defs>
    <path class="cls-3" d="M15.61,57.6c9.03-5.31,18.67-10.53,27.93-15.39,0,0-.2,4.68-.2,4.68-5.21-2.44-11.78-5.74-16.98-8.29,9.94-2.49,20.42-5.02,30.37-7.26,3.44,.98,6.86,2.04,10.28,3.07,0,0-5.81,4.19-5.81,4.19-.07-2.33-.14-4.67-.18-7l-.03-2,1.6-1.46c6.51-5.95,15.57-14.09,22.13-19.95,1.94,9.14,3.99,18.62,2.84,28.03,0,0-2.18-4.77-2.18-4.77,5.43,3.12,11.65,5.98,17.27,8.78,0,0-.51-.2-.51-.2,3.43,1.19,6.17,4.49,6.2,8.23,0,0,0,.18,0,.18,0,.03,0,.11,0,.14,0-.84-.33-2-.99-2.62,.69,.62,1.91,1.26,2.9,1.83,10.69,5.58,22.21,10.3,33.33,15.15-2.64,4.91-5.73,9.63-9.84,13.42-3.93,3.77-9.53,6.94-15.18,6.16-7.02-.58-14.05-1.52-20.95-2.9,3.92-.13,14.2-.46,18-.72,1.46-.13,4.28-.17,5.6-.54,6.7-1.99,11.27-9.23,14.26-15.31,0,0,1.92,4.86,1.92,4.86-10.68-3.54-21.15-7.05-31.39-11.91-2.69-1.43-6.29-2.95-7.02-6.37-.06-.31-.1-.73-.11-1-.03,.07,0,.12,0,.21,.04,.11,.08,.24,.12,.3,.04,.06,.06,.07,.02,.05l-.07-.03c-2.4-1.03-6.59-3-9.59-4.42-3.91-1.9-8.4-4.07-12.04-6.56,.46-3.68,.75-7.36,.46-11.24-.17-2.72-.54-5.7-1-8.34,0,0,8.08,2.74,8.08,2.74-4.01,3.46-12.16,10.34-16.22,13.75,0,0,1.57-3.45,1.57-3.45-.1,3.92-.23,9.28-.36,13.26-4.57-1.7-10-3.64-14.54-5.35,0,0,2.07,.14,2.07,.14-3.53,.53-7.05,1.1-10.58,1.59-3.53,.51-7.06,1.03-10.59,1.5l.96-5.95c4.23,2.64,9.02,5.69,13.26,8.41,0,0-4.74,1.79-4.74,1.79-9.79,3.67-20.11,7.41-30.07,10.61h0Z"/>
    <polygon class="cls-2" points="61.88 34.44 63.11 35.22 63.29 33.78 61.88 34.44 63.11 35.22 63.29 33.78 61.88 34.44"/>
    <path class="cls-1" d="M63.19,35.4l-1.53-.97,1.75-.83-.22,1.79Zm-1.09-.94l.93,.58,.13-1.09-1.06,.5Z"/>
    <path class="cls-3" d="M149,74.6c.34-28.36-18.42-55.49-45.02-65.15C58.75-7.68,9.77,26.53,10,74.6c-.2,48.05,48.75,82.24,93.98,65.13,26.69-9.75,45.3-36.66,45.02-65.13h0Zm0,0c.24,51.6-52.4,88.27-100.9,69.77C19.66,133.98-.38,104.94,0,74.6-.29,44.15,19.58,15.36,48.11,4.86c48.49-18.48,101.13,18.15,100.89,69.75h0Z"/>
    <path class="cls-3" d="M58.73,121.15h-19.54v-8.63h2.75v-18.78h-2.82v-8.63h19.61v8.63h-2.85v18.78h2.85v8.63Zm22.41,0h-18.65v-8.63h1.74l-7.9-10.26,9.17-8.52h-2.93v-8.63h17.75v8.63h-2.8l-7.36,6.84,9.2,11.94h1.79v8.63Z"/>
    <path class="cls-3" d="M88.6,132.15h-8.11v-11.56h8.11c.97,3.14,2.79,4.72,5.47,4.72,1.93,0,2.9-.78,2.9-2.33,0-.81-.34-1.49-1.01-2.02-.73-.59-2.25-1.4-4.59-2.44-2.94-1.33-5.1-2.48-6.48-3.45-1.3-.88-2.4-2.1-3.32-3.65-.92-1.54-1.37-3.24-1.37-5.1,0-3.35,1.09-5.97,3.26-7.85,2.16-1.88,4.82-2.82,7.98-2.82s5.84,.9,8.03,2.69v-2.23h8.16v10.26h-8.06c-.99-2.83-2.73-4.25-5.23-4.25-1.76,0-2.64,.75-2.64,2.25,0,.73,.25,1.27,.75,1.63,.48,.38,2.05,1.22,4.69,2.51,3.54,1.76,5.91,3.05,7.1,3.86,.6,.4,1.22,.95,1.85,1.67s1.15,1.46,1.57,2.22c.95,1.69,1.42,3.52,1.42,5.49,0,3.02-1.12,5.58-3.37,7.67-2.25,2.12-5.08,3.19-8.5,3.19-3.18,0-6.05-.94-8.63-2.82v2.36Z"/>
</svg>